<?xml version="1.0" encoding="UTF-8"?>
<svg xmlns="http://www.w3.org/2000/svg" version="1.1" viewBox="0 0 122.9 46">
  <defs>
    <style>
      .cls-1 {
        stroke: #5f6fff;
        stroke-linecap: round;
        stroke-linejoin: round;
      }

      .cls-1, .cls-2 {
        fill: #000b6d;
      }

      .cls-3 {
        fill: #fff;
      }

      .cls-4 {
        display: none;
      }

      .cls-5 {
        fill: #5f6fff;
      }
    </style>
  </defs>
  <!-- Generator: Adobe Illustrator 28.6.0, SVG Export Plug-In . SVG Version: 1.2.0 Build 709)  -->
  <g>
    <g id="Layer_1">
      <g class="cls-4">
        <path class="cls-5" d="M47.6,14.7c1.5-.2,3.3-.4,5.2-.4,3.5,0,6.1.8,7.7,2.4,1.7,1.6,2.7,3.8,2.7,6.8s-1,5.7-2.7,7.4c-1.8,1.8-4.7,2.7-8.4,2.7s-3.2,0-4.5-.2V14.6h0ZM50.1,31.5c.6.1,1.5.1,2.5.1,5.3,0,8.1-2.9,8.1-8.1s-2.5-7.4-7.7-7.4-2.2,0-2.9.3v15h0Z"/>
        <path class="cls-5" d="M93.2,33c-.7.3-2.1.8-3.9.8-4.1,0-6.8-2.8-6.8-7s2.9-7.3,7.4-7.3,2.8.4,3.5.7l-.6,1.9c-.6-.3-1.5-.7-2.9-.7-3.1,0-4.8,2.3-4.8,5.2s2,5.1,4.8,5.1,2.3-.4,3.1-.7l.4,1.9h-.2Z"/>
        <path class="cls-5" d="M98,15.9c0,.8-.6,1.5-1.6,1.5s-1.5-.7-1.5-1.5.7-1.6,1.6-1.6,1.5.7,1.5,1.6ZM95.2,33.5v-13.7h2.5v13.7h-2.5Z"/>
        <path class="cls-5" d="M101.5,33.5v-11.8h-1.9v-1.9h1.9v-.7c0-1.9.4-3.7,1.6-4.8.9-.9,2.2-1.3,3.3-1.3s1.6.2,2.1.4l-.3,1.9c-.4-.2-.9-.3-1.6-.3-2.1,0-2.7,1.9-2.7,4v.7h3.3v1.9h-3.3v11.8h-2.5,0Z"/>
        <path class="cls-5" d="M112.8,19.8l3,8.1c.3.9.7,2,.9,2.8h0c.3-.8.5-1.9.9-2.9l2.7-8h2.6l-3.7,9.8c-1.8,4.7-3,7.1-4.7,8.6-1.2,1.1-2.4,1.5-3.1,1.6l-.6-2.1c.6-.2,1.4-.6,2.2-1.2.7-.5,1.5-1.5,2.1-2.8,0-.3.2-.5.2-.6s0-.3-.2-.7l-5.1-12.6h2.8Z"/>
        <path class="cls-2" d="M72,18.5l.4-1c.2-.5.9-.5,1.1,0l.4,1c1,2.7,3.1,4.8,5.8,5.8l1,.4c.5.2.5.9,0,1.1l-1,.4c-2.7,1-4.8,3.1-5.8,5.8l-.4,1c-.2.5-.9.5-1.1,0l-.4-1c-1-2.7-3.1-4.8-5.8-5.8l-1-.4c-.5-.2-.5-.9,0-1.1l1-.4c2.7-1,4.8-3.1,5.8-5.8Z"/>
        <g>
          <path class="cls-1" d="M17.2,29.1v16.4c-2,.3-4.2.5-6.5.5-4.2,0-7.7-.2-10.6-.5v-21h12.4c2.1,1,3.7,2.7,4.7,4.7h0Z"/>
          <path class="cls-1" d="M37.2,21.9c0,7.4-2.3,13.4-6.5,17.6-2.6,2.6-6.2,4.4-10.6,5.5v-15.8c1.2-2.4,3.2-4.2,5.8-5.2l1.1-.4c.5-.2.5-1,0-1.2l-1.1-.4c-2.9-1.1-5.1-3.3-6.2-6.2l-.4-1.1c-.2-.5-1-.5-1.2,0l-.4,1.1c-.9,2.5-2.8,4.6-5.2,5.7H0V.9C3.7.4,7.9,0,12.5,0,20.9,0,26.9,2,30.8,5.6c4,3.7,6.4,8.9,6.4,16.2h0Z"/>
        </g>
      </g>
      <g>
        <path class="cls-2" d="M47.6,14.6c1.5-.2,3.3-.4,5.2-.4,3.5,0,6.1.8,7.7,2.4,1.7,1.6,2.7,3.8,2.7,6.8s-1,5.7-2.7,7.4c-1.8,1.8-4.7,2.7-8.4,2.7s-3.2,0-4.5-.2V14.5h0ZM50.1,31.5c.6,0,1.5,0,2.5,0,5.3,0,8.1-2.9,8.1-8.1s-2.5-7.4-7.7-7.4-2.2,0-2.9.3v15h0Z"/>
        <path class="cls-2" d="M93.3,32.9c-.7.3-2.1.8-3.9.8-4.1,0-6.8-2.8-6.8-7s2.9-7.3,7.4-7.3,2.8.4,3.5.7l-.6,1.9c-.6-.3-1.5-.7-2.9-.7-3.1,0-4.8,2.3-4.8,5.2s2,5.1,4.8,5.1,2.3-.4,3.1-.7l.4,1.9h-.2Z"/>
        <path class="cls-2" d="M98,15.9c0,.8-.6,1.5-1.6,1.5s-1.5-.7-1.5-1.5.7-1.6,1.6-1.6,1.5.7,1.5,1.6ZM95.2,33.5v-13.7h2.5v13.7h-2.5Z"/>
        <path class="cls-2" d="M101.5,33.5v-11.8h-1.9v-1.9h1.9v-.7c0-1.9.4-3.7,1.6-4.8.9-.9,2.2-1.3,3.3-1.3s1.6.2,2.1.4l-.3,1.9c-.4-.2-.9-.3-1.6-.3-2.1,0-2.7,1.9-2.7,4v.7h3.3v1.9h-3.3v11.8h-2.5,0Z"/>
        <path class="cls-2" d="M112.8,19.8l3,8.1c.3.9.7,2,.9,2.8h0c.3-.8.5-1.9.9-2.9l2.7-8h2.6l-3.7,9.8c-1.8,4.7-3,7.1-4.7,8.6-1.2,1.1-2.4,1.5-3.1,1.6l-.6-2.1c.6-.2,1.4-.6,2.2-1.2.7-.5,1.5-1.5,2.1-2.8,0-.3.2-.5.2-.6s0-.3-.2-.7l-5.1-12.6h2.8Z"/>
        <path class="cls-2" d="M72,18.5l.4-1c.2-.5.9-.5,1.1,0l.4,1c1,2.7,3.1,4.8,5.8,5.8l1,.4c.5.2.5.9,0,1.1l-1,.4c-2.7,1-4.8,3.1-5.8,5.8l-.4,1c-.2.5-.9.5-1.1,0l-.4-1c-1-2.7-3.1-4.8-5.8-5.8l-1-.4c-.5-.2-.5-.9,0-1.1l1-.4c2.7-1,4.8-3.1,5.8-5.8Z"/>
        <path class="cls-5" d="M0,.9C3.7.4,7.9,0,12.5,0,20.9,0,26.9,1.9,30.8,5.6c4,3.7,6.4,8.9,6.4,16.2s-2.3,13.4-6.5,17.6-11.2,6.5-20,6.5-7.7-.2-10.6-.5c0,0,0-44.5,0-44.5Z"/>
        <g>
          <path class="cls-3" d="M17.7,15.8l.4-1.1c.2-.5,1-.5,1.2,0l.4,1.1c1.1,2.9,3.3,5.1,6.2,6.2l1.1.4c.5.2.5,1,0,1.2l-1.1.4c-2.9,1.1-5.1,3.3-6.2,6.2l-.4,1.1c-.2.5-1,.5-1.2,0l-.4-1.1c-1.1-2.9-3.3-5.1-6.2-6.2l-1.1-.4c-.5-.2-.5-1,0-1.2l1.1-.4c2.9-1.1,5.1-3.3,6.2-6.2Z"/>
          <rect class="cls-3" x="0" y="21.5" width="15.9" height="2.8"/>
          <rect class="cls-3" x="17.3" y="24.9" width="2.8" height="21.1"/>
        </g>
      </g>
      <g class="cls-4">
        <path class="cls-5" d="M47.5,14.7c1.5-.2,3.3-.4,5.2-.4,3.5,0,6.1.8,7.7,2.4,1.7,1.6,2.7,3.8,2.7,6.8s-1,5.7-2.7,7.4c-1.8,1.8-4.7,2.7-8.4,2.7s-3.2,0-4.5-.2V14.7ZM50,31.6c.6.1,1.5.1,2.5.1,5.3,0,8.1-2.9,8.1-8.1s-2.5-7.4-7.7-7.4-2.2.1-2.9.3v15h0Z"/>
        <path class="cls-5" d="M93.2,33c-.7.3-2.1.8-3.9.8-4.1,0-6.8-2.8-6.8-7s2.9-7.3,7.4-7.3,2.8.4,3.5.7l-.6,1.9c-.6-.3-1.5-.7-2.9-.7-3.1,0-4.8,2.3-4.8,5.2s2,5.1,4.8,5.1,2.3-.4,3.1-.7l.4,1.9h-.2Z"/>
        <path class="cls-5" d="M97.9,16c0,.8-.6,1.5-1.6,1.5s-1.5-.7-1.5-1.5.7-1.6,1.6-1.6,1.5.7,1.5,1.6ZM95.1,33.5v-13.7h2.5v13.7h-2.5Z"/>
        <path class="cls-5" d="M101.4,33.5v-11.8h-1.9v-1.9h1.9v-.7c0-1.9.4-3.7,1.6-4.8.9-.9,2.2-1.3,3.3-1.3s1.6.2,2.1.4l-.3,1.9c-.4-.2-.9-.3-1.6-.3-2.1,0-2.7,1.9-2.7,4v.7h3.3v1.9h-3.3v11.8h-2.5,0Z"/>
        <path class="cls-5" d="M112.7,19.8l3,8.1c.3.9.7,2,.9,2.8h0c.3-.8.5-1.9.9-2.9l2.7-8h2.6l-3.7,9.8c-1.8,4.7-3,7.1-4.7,8.6-1.2,1.1-2.4,1.5-3.1,1.6l-.6-2.1c.6-.2,1.4-.6,2.2-1.2.7-.5,1.5-1.5,2.1-2.8,0-.3.2-.5.2-.6s0-.3-.2-.7l-5.1-12.6h2.8Z"/>
        <path class="cls-2" d="M71.9,18.5l.4-1c.2-.5.9-.5,1.1,0l.4,1c1,2.7,3.1,4.8,5.8,5.8l1,.4c.5.2.5.9,0,1.1l-1,.4c-2.7,1-4.8,3.1-5.8,5.8l-.4,1c-.2.5-.9.5-1.1,0l-.4-1c-1-2.7-3.1-4.8-5.8-5.8l-1-.4c-.5-.2-.5-.9,0-1.1l1-.4c2.7-1,4.8-3.1,5.8-5.8Z"/>
        <path class="cls-2" d="M0,.9c3.6-.5,7.8-.9,12.4-.9,8.4,0,14.4,2,18.3,5.6,4,3.7,6.4,8.9,6.4,16.2s-2.3,13.4-6.5,17.6-11.2,6.5-20,6.5S2.9,45.7,0,45.4C0,45.4,0,.9,0,.9Z"/>
        <g>
          <path class="cls-3" d="M17.6,15.8l.4-1.1c.2-.5,1-.5,1.2,0l.4,1.1c1.1,2.9,3.3,5.1,6.2,6.2l1.1.4c.5.2.5,1,0,1.2l-1.1.4c-2.9,1.1-5.1,3.3-6.2,6.2l-.4,1.1c-.2.5-1,.5-1.2,0l-.4-1.1c-1.1-2.9-3.3-5.1-6.2-6.2l-1.1-.4c-.5-.2-.5-1,0-1.2l1.1-.4c2.9-1.1,5.1-3.3,6.2-6.2Z"/>
          <rect class="cls-3" y="21.6" width="15.9" height="2.8"/>
          <rect class="cls-3" x="17.2" y="24.9" width="2.8" height="21.1"/>
        </g>
      </g>
    </g>
  </g>
</svg>